# xmcd
#
# Track frame offsets:
#	150
#	18558
#	34881
#	50317
#	62967
#	79863
#	95687
#	111780
#	134317
#	148695
#	167656
#	186181
#
# Disc length: 2762 seconds
#
# Revision: 3
# Processed by: cddbd v1.5.2PL0 Copyright (c) Steve Scherf et al.
# Submitted via: audiograbber 1.83.01
#
DISCID=a80ac80c
DTITLE=CD Pool - Urban November 2010 CD1
DYEAR=2010
DGENRE=R&B
TTITLE0=Keri Hilson - Pretty Girl Rock
TTITLE1=Wiz Khalifa - Black and Yellow (Clean Version)
TTITLE2=Jason Derulo - The Sky's The Limit (Ayo Remix)
TTITLE3=Slick Don - Comfort Zone
TTITLE4=Gyptian - Hold You (Soca Remix)
TTITLE5=Toby Ioi Ft Spoonface - Make You Feel (Bass Music)
TTITLE6=Effie - Lonely (Stinkahbell Remix)
TTITLE7=Basement Freaks - Something Freaky (Pimpsoul Remix)
TTITLE8=Cymarshall Law and The Beatnikz - Believe This (Main Mix)
TTITLE9=Slackah The Beatchild - B-Boy Beef (Remix)
TTITLE10=Greenjade Ft Aaron Sokell - More Things Change
TTITLE11=Dels Ft Ghostpoet - Trumpalump (Joe Goddard Remix)
EXTD=
EXTT0=
EXTT1=
EXTT2=
EXTT3=
EXTT4=
EXTT5=
EXTT6=
EXTT7=
EXTT8=
EXTT9=
EXTT10=
EXTT11=
PLAYORDER=
